# xmcd CD database file
#
# Track frame offsets:
#	150
#	23335
#	46012
#	68250
#
# Disc length: 1210 seconds
#
# Revision: 8
# Processed by: cddbd v1.5.2PL0 Copyright (c) Steve Scherf et al.
# Submitted via: CDex 1.70beta2
#
DISCID=1b04b804
DTITLE=Sissel featuring  Zamfir - CHANCE Triangle
DYEAR=2000
DGENRE=New Age
TTITLE0=Summer Snow
TTITLE1=Seven Angels
TTITLE2=Snow Tales [Ensemble Version]
TTITLE3=Prayer Song [Ensemble Version]
EXTD=YEAR: 2000
EXTT0=
EXTT1=
EXTT2=
EXTT3=
PLAYORDER=
